<?xml version="1.0" standalone="no"?>
<!DOCTYPE svg PUBLIC "-//W3C//DTD SVG 20010904//EN"
 "http://www.w3.org/TR/2001/REC-SVG-20010904/DTD/svg10.dtd">
<svg version="1.0" xmlns="http://www.w3.org/2000/svg"
 width="2000.000000pt" height="2000.000000pt" viewBox="0 0 2000.000000 2000.000000"
 preserveAspectRatio="xMidYMid meet">

<g transform="translate(0.000000,2000.000000) scale(0.100000,-0.100000)"
fill="#ffff" stroke="none">
<path d="M5450 9463 c0 -10 72 -95 115 -138 23 -22 53 -56 68 -75 14 -19 53
-64 86 -100 34 -36 61 -68 61 -71 0 -4 18 -26 41 -50 22 -24 59 -69 82 -99 23
-30 47 -60 52 -66 6 -6 24 -28 40 -49 17 -21 47 -56 68 -77 20 -22 37 -43 37
-48 0 -4 17 -25 38 -46 20 -22 51 -57 67 -79 17 -22 43 -53 59 -70 15 -16 40
-46 55 -65 14 -19 39 -48 56 -65 17 -16 42 -47 57 -68 14 -20 43 -56 64 -80
34 -36 56 -63 134 -161 8 -10 29 -33 45 -51 41 -43 65 -74 65 -82 0 -4 9 -16
20 -28 50 -50 130 -141 130 -146 0 -4 12 -20 28 -37 56 -62 127 -144 130 -152
2 -4 23 -29 47 -55 25 -26 45 -51 45 -57 0 -5 16 -24 35 -42 19 -19 35 -37 35
-42 0 -5 21 -32 48 -61 65 -71 132 -149 187 -219 17 -21 40 -48 53 -60 12 -13
22 -28 22 -34 0 -5 5 -10 10 -10 6 0 10 -6 10 -12 1 -7 37 -51 80 -97 44 -47
80 -88 80 -93 0 -4 14 -23 31 -41 17 -17 43 -48 58 -67 14 -19 33 -42 41 -50
14 -13 55 -64 110 -134 8 -10 27 -30 43 -44 15 -14 27 -31 27 -37 0 -7 12 -25
28 -41 15 -16 50 -56 77 -89 28 -33 59 -69 71 -80 11 -11 30 -35 43 -52 12
-18 42 -54 67 -79 24 -26 44 -51 44 -56 0 -6 19 -29 43 -52 23 -22 53 -57 67
-76 23 -34 44 -59 85 -103 11 -12 34 -40 50 -62 17 -22 43 -53 59 -70 15 -16
40 -46 55 -65 14 -19 45 -54 69 -77 23 -24 42 -48 42 -54 0 -7 8 -19 18 -28
21 -19 68 -75 102 -121 14 -18 34 -43 46 -54 12 -12 34 -39 50 -61 16 -22 44
-52 62 -68 17 -16 32 -35 32 -42 0 -6 26 -40 58 -73 71 -76 182 -209 182 -219
0 -5 16 -23 34 -41 18 -18 39 -45 47 -59 7 -13 28 -40 46 -60 18 -19 33 -39
33 -44 0 -5 14 -24 31 -41 17 -18 38 -45 47 -60 9 -16 20 -28 24 -28 4 0 8 -6
8 -12 0 -7 17 -32 38 -55 56 -62 72 -83 72 -89 0 -3 10 -19 23 -34 12 -15 31
-40 42 -55 11 -15 35 -44 53 -64 19 -20 41 -48 50 -63 9 -16 20 -28 24 -28 4
0 8 -5 8 -10 0 -6 23 -39 51 -73 63 -78 68 -83 104 -132 17 -22 33 -41 38 -43
4 -2 7 -8 7 -13 0 -6 10 -20 23 -33 12 -13 31 -36 42 -51 11 -16 26 -34 33
-41 6 -7 12 -19 12 -27 0 -8 6 -17 14 -20 8 -3 29 -27 47 -54 18 -26 48 -64
66 -83 18 -19 33 -40 33 -46 0 -5 8 -19 18 -30 9 -10 25 -31 35 -46 10 -16 25
-28 35 -28 20 1 52 23 52 37 0 5 10 19 23 30 12 11 44 45 71 77 27 31 71 79
98 107 26 28 48 53 48 56 0 3 29 35 64 72 101 105 156 163 190 204 17 21 56
64 86 96 30 31 67 72 81 91 15 19 58 68 95 107 38 40 96 103 129 139 33 37 72
79 88 95 15 16 27 32 27 36 0 5 15 22 33 39 17 16 43 44 57 61 14 17 59 67
100 111 41 44 90 96 109 117 31 35 36 36 80 31 123 -14 200 -26 241 -36 108
-26 189 -42 240 -47 30 -3 59 -9 64 -14 6 -5 31 -9 56 -9 25 0 50 -4 56 -9 5
-5 29 -11 54 -14 89 -11 184 -29 201 -38 10 -5 40 -9 66 -9 27 0 53 -4 59 -9
5 -5 34 -12 64 -15 96 -9 144 -17 165 -26 11 -5 43 -11 70 -14 86 -8 190 -28
199 -37 6 -5 33 -9 61 -9 28 0 55 -4 61 -9 5 -5 32 -12 59 -15 221 -28 296
-40 323 -55 11 -6 45 -11 76 -11 30 0 58 -4 61 -10 3 -6 31 -10 61 -10 45 0
54 3 54 18 -1 17 -13 107 -31 232 -5 36 -12 88 -15 115 -3 28 -10 54 -15 60
-5 5 -9 35 -9 67 0 31 -4 67 -10 80 -5 13 -14 61 -20 108 -6 47 -15 114 -21
150 -5 36 -12 90 -15 120 -3 30 -10 59 -15 65 -5 5 -9 34 -9 64 0 30 -4 68 -9
85 -6 17 -17 76 -25 131 -9 55 -18 116 -22 135 -3 19 -8 64 -11 100 -2 36 -9
69 -14 75 -5 5 -9 37 -9 71 0 35 -4 66 -10 69 -5 3 -10 31 -10 61 0 31 -4 63
-10 73 -8 17 -20 89 -39 237 -5 34 -11 66 -15 72 -7 12 22 92 34 92 5 0 87 78
182 173 96 94 236 231 312 302 75 72 228 219 339 329 111 109 271 264 356 345
212 200 461 446 461 454 0 14 -74 37 -119 37 -26 0 -51 4 -57 9 -5 5 -52 12
-104 15 -274 19 -480 39 -498 50 -5 3 -49 8 -98 12 -49 3 -93 10 -98 15 -6 5
-52 9 -102 9 -51 0 -96 5 -99 10 -3 6 -48 10 -100 10 -52 0 -97 4 -100 10 -3
6 -37 10 -75 10 -38 0 -72 5 -75 10 -3 6 -26 10 -50 10 -25 0 -45 5 -48 13 -8
19 -7 -66 3 -343 14 -398 15 -535 5 -532 -6 2 -43 21 -82 43 -40 22 -77 37
-83 34 -6 -4 -9 -1 -8 5 2 6 -28 28 -67 49 -38 21 -157 86 -263 145 -106 59
-197 104 -202 101 -6 -4 -9 -2 -8 4 2 7 -33 31 -77 54 -44 24 -141 77 -215
119 -74 41 -187 104 -250 138 -63 35 -128 71 -145 80 -16 9 -57 32 -90 50
-135 75 -270 152 -294 169 -35 25 -210 130 -216 131 -3 0 -10 0 -16 0 -5 0 -7
6 -3 13 5 6 -7 -1 -26 -17 -19 -16 -34 -33 -33 -38 2 -4 -1 -7 -6 -5 -4 1 -93
-70 -196 -158 -103 -88 -199 -170 -214 -182 -232 -195 -370 -317 -364 -326 4
-6 1 -7 -6 -2 -13 8 -64 -33 -56 -45 2 -4 -2 -7 -9 -7 -20 0 -277 -224 -269
-235 3 -7 1 -8 -5 -4 -15 9 -194 -143 -185 -157 3 -6 2 -7 -4 -4 -13 8 -134
-93 -126 -106 3 -5 1 -7 -4 -4 -6 4 -16 0 -23 -8 -20 -24 -33 -18 -78 40 -25
31 -48 52 -54 49 -6 -4 -8 -3 -5 3 3 5 -73 104 -169 219 -97 115 -250 298
-341 406 -91 109 -170 195 -176 191 -5 -3 -7 -2 -4 4 3 5 -37 61 -90 124 -53
63 -113 134 -134 159 -245 293 -342 406 -351 409 -7 2 -8 -2 -3 -9 6 -9 4 -11
-4 -6 -7 5 -10 14 -7 21 2 7 -16 37 -41 66 -26 30 -86 102 -135 162 -49 59
-91 107 -92 107 -2 0 -3 -6 -3 -14 0 -8 5 -14 11 -13 6 1 10 -7 9 -18 -1 -11
0 -14 3 -7 4 9 17 -1 37 -28 25 -35 28 -44 16 -52 -10 -7 -8 -9 9 -5 24 6 52
-24 52 -54 0 -9 7 -22 15 -29 9 -8 13 -21 10 -34 -5 -16 -4 -18 4 -6 17 25 24
3 9 -28 -13 -26 -13 -29 1 -29 9 0 22 4 29 10 8 6 12 6 12 -2 0 -7 5 -9 11 -6
7 5 2 16 -12 31 -12 13 -20 26 -17 30 3 3 16 -9 28 -25 12 -17 18 -31 13 -32
-4 0 0 -4 10 -7 16 -7 16 -9 2 -27 -8 -11 -13 -13 -10 -5 4 12 -5 15 -42 16
-158 2 -404 17 -438 26 -22 6 -83 14 -135 19 -52 5 -135 13 -185 19 -49 6
-139 13 -200 16 -60 3 -114 10 -119 15 -6 5 -44 9 -86 9 -41 0 -91 4 -110 10
-19 5 -77 13 -130 16 -52 3 -104 9 -115 14 -11 5 -63 12 -115 15 -212 13 -246
16 -265 25 -11 5 -49 11 -85 13 -151 10 -305 28 -314 37 -6 6 -49 10 -96 10
-47 0 -90 4 -95 9 -6 5 -55 12 -110 15 -55 3 -143 10 -195 15 -52 6 -141 15
-198 20 -57 6 -107 13 -112 16 -6 4 -45 8 -88 11 -42 3 -88 9 -102 14 -30 10
-180 21 -180 13z m3451 -245 l23 -33 -27 24 c-15 14 -27 28 -27 33 0 15 8 8
31 -24z m29 -67 c0 -5 -7 -11 -14 -14 -10 -4 -13 -1 -9 9 6 15 23 19 23 5z
m3032 -385 c10 5 10 4 2 -5 -12 -13 -44 -5 -44 11 0 6 6 5 15 -2 8 -6 20 -8
27 -4z m-287 -265 c3 -5 2 -12 -3 -15 -5 -3 -9 1 -9 9 0 17 3 19 12 6z"/>
<path d="M8740 9321 c0 -23 16 -36 25 -21 3 5 1 10 -5 10 -6 0 -9 4 -5 9 3 5
1 12 -5 16 -5 3 -10 -3 -10 -14z"/>
<path d="M8805 9280 c-3 -5 -2 -10 4 -10 5 0 13 5 16 10 3 6 2 10 -4 10 -5 0
-13 -4 -16 -10z"/>
<path d="M8830 9261 c0 -5 5 -13 10 -16 6 -3 10 -2 10 4 0 5 -4 13 -10 16 -5
3 -10 2 -10 -4z"/>
<path d="M8807 9229 c-4 -16 -3 -18 9 -8 7 6 11 15 8 20 -8 13 -11 11 -17 -12z"/>
<path d="M8827 9213 c-3 -5 6 -9 19 -9 13 -1 21 2 18 7 -6 11 -31 12 -37 2z"/>
</g>
</svg>
